# xmcd
#
# Track frame offsets: 
#        150
#        16980
#        36112
#        49532
#        67467
#        86045
#        101677
#        115990
#        129030
#        140362
#        155025
#        166547
#
# Disc length: 2377 seconds
#
# Revision: 0
# Processed by: cddbd v1.4PL0 Copyright (c) Steve Scherf et al.
# Submitted via: ExactAudioCopy v0.90b4
#
DISCID=9a09470c
DTITLE=Ronander Blues - First Take
DYEAR=1999
DGENRE=Blues
TTITLE0=Good Morning, School Girl
TTITLE1=Hoodoo Hoodoo
TTITLE2=You're So Fine
TTITLE3=Mystery Train
TTITLE4=Early In The Morning
TTITLE5=I Can't Be Satisfied
TTITLE6=You Know My Love
TTITLE7=Don't Start Me To Talking
TTITLE8=It Ain't Right
TTITLE9=Stop Breaking Down
TTITLE10=Route 66
TTITLE11=From Four Until Late
EXTD=
EXTT0=
EXTT1=
EXTT2=
EXTT3=
EXTT4=
EXTT5=
EXTT6=
EXTT7=
EXTT8=
EXTT9=
EXTT10=
EXTT11=
PLAYORDER=
